<?xml version="1.0" standalone="no"?>
<!DOCTYPE svg PUBLIC "-//W3C//DTD SVG 20010904//EN"
 "http://www.w3.org/TR/2001/REC-SVG-20010904/DTD/svg10.dtd">
<svg version="1.0" xmlns="http://www.w3.org/2000/svg"
 width="256.000000pt" height="256.000000pt" viewBox="0 0 256.000000 256.000000"
 preserveAspectRatio="xMidYMid meet">
<metadata>
Created by potrace 1.11, written by Peter Selinger 2001-2013
</metadata>
<g transform="translate(0.000000,256.000000) scale(0.100000,-0.100000)"
fill="#000000" stroke="none">
<path d="M1094 2404 c-46 -32 -57 -45 -88 -104 -44 -87 -31 -165 46 -276 48
-69 69 -128 75 -209 4 -60 1 -76 -19 -117 l-24 -46 25 16 c14 10 38 31 53 47
25 27 27 28 28 9 0 -12 -5 -35 -11 -53 l-11 -31 -106 -1 c-59 0 -122 -2 -139
-3 -40 -4 -41 1 -7 33 40 39 57 81 60 150 3 74 -13 113 -71 176 -20 22 -43 51
-50 65 -34 67 -25 168 21 227 30 39 14 36 -55 -9 l-43 -29 7 28 c3 15 18 42
31 60 l24 32 -29 -10 c-44 -16 -107 -74 -130 -122 -39 -81 -27 -128 65 -248
60 -78 79 -141 71 -230 -4 -33 -9 -64 -12 -69 -12 -20 14 -9 36 15 13 13 28
25 32 25 10 0 -1 -81 -12 -91 -3 -4 -37 -10 -76 -14 -68 -6 -96 -9 -180 -21
-207 -29 -296 -63 -315 -120 -10 -31 -7 -217 6 -349 12 -123 62 -273 120 -361
39 -58 138 -152 202 -190 21 -13 67 -51 103 -85 101 -98 126 -104 409 -104
275 0 321 10 381 85 30 38 133 114 238 177 20 12 112 45 205 73 249 76 297
103 351 201 25 46 29 67 32 140 3 114 -21 166 -115 244 -85 71 -155 98 -241
93 l-65 -3 -8 33 c-5 17 -12 32 -16 32 -5 0 -24 14 -43 31 -64 57 -97 69 -301
101 -43 7 -78 15 -78 18 0 3 16 16 36 30 47 34 84 99 91 158 6 62 -18 119 -77
182 -91 96 -102 185 -35 284 14 20 25 39 25 41 0 9 -77 -28 -97 -48 -31 -28
-29 -14 7 49 l29 53 -28 -10 c-46 -16 -107 -75 -125 -121 -32 -77 -17 -138 56
-236 78 -104 103 -200 74 -281 -9 -24 -15 -46 -13 -48 2 -1 22 14 45 35 31 29
42 34 42 22 0 -43 -43 -126 -59 -115 -7 4 -164 18 -208 19 -29 0 -29 14 1 45
30 32 56 109 56 164 0 51 -29 116 -76 173 -80 98 -94 207 -40 312 l27 53 -32
-17 c-17 -9 -42 -27 -55 -41 -31 -34 -31 -13 1 55 13 28 23 52 21 52 -2 0 -21
-12 -42 -26z m436 -908 c58 -9 123 -22 145 -28 l40 -11 -29 -8 c-16 -5 -48 -4
-70 1 -23 4 -61 11 -86 14 -25 3 -56 8 -70 11 -124 24 -622 28 -732 5 -21 -4
-38 -4 -38 0 0 9 56 18 170 26 47 3 87 8 89 10 11 11 487 -6 581 -20z m-920
-191 c78 -14 115 -19 240 -32 94 -9 434 -10 560 -1 52 3 87 4 78 1 -13 -3 -18
-16 -19 -46 -11 -366 -125 -511 -453 -577 -50 -10 -82 -19 -71 -20 11 -1 29
-3 40 -5 11 -2 42 -6 69 -9 52 -6 73 -15 38 -17 -12 -1 -26 -3 -32 -4 -5 -1
-25 -4 -42 -5 l-33 -2 30 -9 c32 -9 -153 -5 -192 4 -25 6 -66 27 -73 37 -3 4
-37 28 -77 54 -169 109 -229 254 -234 561 -2 125 -6 115 49 99 26 -8 81 -21
122 -29z m1147 -26 c1 -21 -3 -42 -9 -45 -7 -5 -8 -2 -3 6 6 10 1 12 -23 7
-30 -6 -32 -5 -32 23 0 34 2 34 -98 16 -40 -7 -74 -10 -77 -7 -2 4 11 8 28 9
18 2 70 11 117 20 47 10 87 16 90 14 3 -2 6 -21 7 -43z m350 -55 c40 -11 53
-95 25 -164 -23 -57 -98 -105 -206 -133 -52 -14 -57 -14 -52 0 4 9 13 59 22
111 17 109 23 122 61 147 68 45 98 53 150 39z"/>
</g>
</svg>
